<svg xmlns="http://www.w3.org/2000/svg" width="30" height="30" viewBox="0 0 30 30">
  <g id="linkedin" transform="translate(0.375)">
    <rect id="Rectangle_1824" data-name="Rectangle 1824" width="30" height="30" transform="translate(-0.375)" fill="#2699fb"/>
    <g id="Group_718" data-name="Group 718" transform="translate(4.457 4.48)">
      <path id="Path_320" data-name="Path 320" d="M71.333,69.215a2.469,2.469,0,1,1-2.486,2.466A2.479,2.479,0,0,1,71.333,69.215Z" transform="translate(-68.847 -69.215)" fill="#c4e4ff"/>
      <path id="Path_321" data-name="Path 321" d="M77.776,188.381H74.881a.68.68,0,0,1-.68-.68v-12.35a.68.68,0,0,1,.68-.68h2.895a.68.68,0,0,1,.68.68V187.7A.68.68,0,0,1,77.776,188.381Z" transform="translate(-73.854 -167.845)" fill="#c4e4ff"/>
      <path id="Path_322" data-name="Path 322" d="M194.806,173.95a4.688,4.688,0,0,0-4.688-4.688h-.742a4.17,4.17,0,0,0-3.648,2.153l-.039,0v-1.516a.282.282,0,0,0-.282-.282h-3.612a.282.282,0,0,0-.282.282V183.04a.282.282,0,0,0,.282.282h3.69a.282.282,0,0,0,.283-.282v-7.594a2.407,2.407,0,0,1,2.36-2.418,2.387,2.387,0,0,1,2.415,2.387v7.626a.282.282,0,0,0,.282.282h3.7a.282.282,0,0,0,.282-.282V173.95Z" transform="translate(-174.219 -162.786)" fill="#c4e4ff"/>
    </g>
  </g>
</svg>
