<svg xmlns="http://www.w3.org/2000/svg" width="17.12" height="13.04" viewBox="0 0 17.12 13.04">
  <g id="Group_901" data-name="Group 901" transform="translate(0 0)">
    <path id="Path_376" data-name="Path 376" d="M15.615,61H1.5A1.507,1.507,0,0,0,0,62.5V72.536a1.507,1.507,0,0,0,1.5,1.5h14.11a1.507,1.507,0,0,0,1.5-1.5V62.5A1.507,1.507,0,0,0,15.615,61Zm-.208,1L8.592,68.819,1.717,62ZM1,72.328v-9.62L5.834,67.5Zm.709.709L6.546,68.2,8.24,69.883a.5.5,0,0,0,.708,0L10.6,68.229l4.808,4.808Zm14.4-.709L11.309,67.52l4.808-4.808Z" transform="translate(0 -61)" fill="currentColor"/>
  </g>
</svg>
