<svg xmlns="http://www.w3.org/2000/svg" width="16.076" height="17.552" viewBox="0 0 16.076 17.552">
  <g id="Group_902" data-name="Group 902" transform="translate(0)">
    <path id="Path_378" data-name="Path 378" d="M32.138,7.256h-.043V6.191a6.191,6.191,0,1,0-12.382,0V7.256h-.261A1.769,1.769,0,0,0,17.757,9.08V11.8a1.716,1.716,0,0,0,1.672,1.759h1.63a.413.413,0,0,0,.393-.432q0-.012,0-.025V7.777c0-.261-.152-.521-.391-.521h-.478V6.191a5.322,5.322,0,1,1,10.644,0V7.255h-.478c-.239,0-.391.261-.391.521V13.1a.413.413,0,0,0,.366.454l.025,0h.5l-.043.065a3.432,3.432,0,0,1-2.759,1.369,2.151,2.151,0,0,0-4.258.413,2.172,2.172,0,0,0,2.172,2.151,2.237,2.237,0,0,0,1.564-.673,1.912,1.912,0,0,0,.521-1.043A4.3,4.3,0,0,0,31.9,14.12l.413-.608a1.479,1.479,0,0,0,1.521-1.5V9.3A1.974,1.974,0,0,0,32.138,7.256ZM20.581,12.686h-1.13a.847.847,0,0,1-.826-.868c0-.008,0-.015,0-.023V9.08a.9.9,0,0,1,.825-.956h1.13Zm6.712,3.584a1.282,1.282,0,0,1-.934.413,1.325,1.325,0,0,1-1.3-1.282,1.282,1.282,0,0,1,2.563,0h0A1.151,1.151,0,0,1,27.293,16.271Zm5.67-4.258c0,.587-.565.673-.825.673h-.912V8.124h.912c.478,0,.825.673.825,1.173Z" transform="translate(-17.756)" fill="currentColor"/>
  </g>
</svg>
