<svg xmlns="http://www.w3.org/2000/svg" width="30" height="30" viewBox="0 0 30 30">
  <g id="twitter" transform="translate(0.183)">
    <rect id="Rectangle_1825" data-name="Rectangle 1825" width="30" height="30" transform="translate(-0.183)" fill="#2699fb"/>
    <path id="Path_323" data-name="Path 323" d="M60.359,111.692a12.7,12.7,0,0,0,19.488-10.733q0-.263-.01-.522a9.979,9.979,0,0,0,2.207-2.266,10.3,10.3,0,0,1-2.521.654h-.008l.007,0a4.721,4.721,0,0,0,1.939-2.473,15.47,15.47,0,0,1-2.163.9c-.209.069-.428.138-.653.2a4.456,4.456,0,0,0-7.593,4.053A13.419,13.419,0,0,1,61.9,96.881s-2.13,2.908,1.269,5.9a4.578,4.578,0,0,1-1.925-.574,4.235,4.235,0,0,0,3.522,4.423,4.077,4.077,0,0,1-1.966.082,4.393,4.393,0,0,0,4.1,3.112,8.559,8.559,0,0,1-6.543,1.87Z" transform="translate(-56.451 -89.824)" fill="#c4e4ff"/>
  </g>
</svg>
