<svg xmlns="http://www.w3.org/2000/svg" width="30" height="30" viewBox="0 0 30 30">
  <g id="youtube" transform="translate(0.5)">
    <rect id="Rectangle_1826" data-name="Rectangle 1826" width="30" height="30" transform="translate(-0.5)" fill="#2699fb"/>
    <g id="Group_719" data-name="Group 719" transform="translate(5.966 4.083)">
      <path id="Path_324" data-name="Path 324" d="M103.235,214.651a.93.93,0,0,0-.074-.328.353.353,0,0,0-.317-.217.552.552,0,0,0-.433.162.287.287,0,0,0-.072.108l0,3.494v.086l.034.045a.693.693,0,0,0,.37.227.358.358,0,0,0,.473-.283.848.848,0,0,0,.019-.176C103.238,216.731,103.24,215.691,103.235,214.651Zm0,0a.93.93,0,0,0-.074-.328.353.353,0,0,0-.317-.217.552.552,0,0,0-.433.162.287.287,0,0,0-.072.108l0,3.494v.086l.034.045a.693.693,0,0,0,.37.227.358.358,0,0,0,.473-.283.848.848,0,0,0,.019-.176C103.238,216.731,103.24,215.691,103.235,214.651Zm3.912-5.268q-6.2-.133-12.406,0a2.639,2.639,0,0,0-2.581,2.638v6.458a2.639,2.639,0,0,0,2.581,2.639q6.2.133,12.406,0a2.639,2.639,0,0,0,2.582-2.639v-6.458A2.639,2.639,0,0,0,107.146,209.383Zm-11.191,9.684H94.762v-6.74H93.528V211.2h3.664v1.125H95.955Zm4.267-2.8v2.8H99.166v-.64c-.038.041-.06.063-.08.085a1.937,1.937,0,0,1-.814.583.988.988,0,0,1-.495.045.608.608,0,0,1-.478-.381,1.478,1.478,0,0,1-.109-.609c0-.77,0-4.847,0-4.887h1.053c0,.036.006,2.962.006,4.389a1.167,1.167,0,0,0,.016.233.257.257,0,0,0,.37.206,1.151,1.151,0,0,0,.51-.4.185.185,0,0,0,.02-.107v-4.329l1.056,0Zm4.017,2.239a.866.866,0,0,1-.9.636,1.193,1.193,0,0,1-.9-.411l-.1-.109v.441H101.28V211.2h1.058v2.59a1.063,1.063,0,0,1,.114-.181,1.214,1.214,0,0,1,.609-.387.917.917,0,0,1,1.1.5,2.044,2.044,0,0,1,.168.884q0,1.65,0,3.3A1.929,1.929,0,0,1,104.238,218.509Zm3.907-.221a1.294,1.294,0,0,1-1.117.916,1.768,1.768,0,0,1-1.009-.1,1.4,1.4,0,0,1-.8-1.019,3.073,3.073,0,0,1-.077-.657c-.008-.862,0-1.724,0-2.585a1.74,1.74,0,0,1,.417-1.211,1.539,1.539,0,0,1,1.317-.508,1.844,1.844,0,0,1,.46.083,1.281,1.281,0,0,1,.873,1.036,3.123,3.123,0,0,1,.058.586c.008.46,0,1.473,0,1.473h-2.025v1.452a.472.472,0,1,0,.943,0V217h1.088A5.274,5.274,0,0,1,108.145,218.287Zm-.966-3.7a.472.472,0,1,0-.943,0v.815h.943Zm-4.018-.26a.353.353,0,0,0-.317-.217.552.552,0,0,0-.433.162.287.287,0,0,0-.072.108l0,3.494v.086l.034.045a.693.693,0,0,0,.37.227.358.358,0,0,0,.473-.283.848.848,0,0,0,.019-.176c0-1.04,0-2.08,0-3.119A.93.93,0,0,0,103.161,214.324Z" transform="translate(-92.159 -199.85)" fill="#c4e4ff"/>
      <path id="Path_325" data-name="Path 325" d="M259.787,94.99v5.842H258.7V100.2c-.12.118-.222.228-.334.327a1.462,1.462,0,0,1-.688.358.687.687,0,0,1-.879-.468,1.542,1.542,0,0,1-.07-.436V94.99h1.074v4.455a1.008,1.008,0,0,0,.015.177.244.244,0,0,0,.345.209,1.155,1.155,0,0,0,.519-.4.193.193,0,0,0,.016-.109V94.99Z" transform="translate(-246.082 -92.924)" fill="#c4e4ff"/>
      <path id="Path_326" data-name="Path 326" d="M137.273,66.151c-.235-.99-.727-3.081-.727-3.081h-1.232s.946,3.139,1.37,4.538a.559.559,0,0,1,.022.159v3.21h1.136v-3.21a.559.559,0,0,1,.022-.159c.423-1.4,1.37-4.538,1.37-4.538H138s-.492,2.091-.727,3.081Z" transform="translate(-132.521 -63.07)" fill="#c4e4ff"/>
      <path id="Path_327" data-name="Path 327" d="M196.358,92.731h0a1.55,1.55,0,0,0-1.55,1.55v3.033a1.55,1.55,0,0,0,1.55,1.55h0a1.55,1.55,0,0,0,1.55-1.55V94.281A1.55,1.55,0,0,0,196.358,92.731Zm.447,4.644a.447.447,0,1,1-.894,0V94.22a.447.447,0,1,1,.894,0Z" transform="translate(-188.163 -90.811)" fill="#c4e4ff"/>
    </g>
  </g>
</svg>
