<svg id="facebook" xmlns="http://www.w3.org/2000/svg" width="39.516" height="39.517" viewBox="0 0 39.516 39.517">
  <path id="Path_394" data-name="Path 394" d="M37.335,0H2.179A2.181,2.181,0,0,0,0,2.181V37.337a2.181,2.181,0,0,0,2.181,2.179H37.335a2.181,2.181,0,0,0,2.181-2.18h0V2.179A2.181,2.181,0,0,0,37.335,0Zm0,0" transform="translate(0 0)" fill="#2699fb"/>
  <path id="Path_395" data-name="Path 395" d="M218.307,110.873V95.591h5.152l.772-5.982h-5.924V85.8c0-1.728.48-2.905,2.957-2.905h3.14V77.559a42.212,42.212,0,0,0-4.6-.235c-4.554,0-7.67,2.779-7.67,7.883v4.4H207v5.981h5.133v15.282Zm0,0" transform="translate(-191.024 -71.356)" fill="#fff"/>
</svg>
