<svg id="Group_1219" data-name="Group 1219" xmlns="http://www.w3.org/2000/svg" width="39.89" height="39.898" viewBox="0 0 39.89 39.898">
  <path id="Path_396" data-name="Path 396" d="M1.108,1.951C-2.017,5.2-1.378,8.647-1.378,19.125c0,8.7-1.518,17.423,6.427,19.477,2.481.638,24.463.638,26.941,0,3.308-.854,6-3.537,6.367-8.215.051-.653.051-21.852,0-22.518C37.965,2.881,34.9.009,30.855-.573c-.926-.134-1.112-.174-5.865-.182C8.13-.747,4.434-1.5,1.108,1.951Z" transform="translate(1.494 0.818)" fill="#2699fb"/>
  <path id="Path_397" data-name="Path 397" d="M81.53,66.8c-6.018,0-11.732-.535-13.915,5.066-.9,2.314-.771,5.318-.771,9.621,0,3.775-.121,7.324.771,9.619,2.178,5.605,7.938,5.068,13.911,5.068,5.762,0,11.7.6,13.913-5.068.9-2.337.771-5.3.771-9.619,0-5.738.317-9.442-2.466-12.223C90.926,66.444,87.116,66.8,81.523,66.8Zm-1.316,2.647c12.552-.02,14.15-1.415,13.268,17.97-.313,6.856-5.534,6.1-11.951,6.1-11.7,0-12.037-.335-12.037-12.04,0-11.842.928-12.027,10.719-12.037Zm9.155,2.438a1.762,1.762,0,1,0,1.762,1.762A1.762,1.762,0,0,0,89.369,71.881Zm-7.839,2.06a7.542,7.542,0,1,0,7.539,7.542,7.542,7.542,0,0,0-7.539-7.542Zm0,2.647c6.472,0,6.48,9.791,0,9.791S75.049,76.588,81.53,76.588Z" transform="translate(-61.529 -61.531)" fill="#fff"/>
</svg>
