<svg id="twitter" xmlns="http://www.w3.org/2000/svg" width="39.898" height="39.898" viewBox="0 0 39.898 39.898">
  <ellipse id="Ellipse_1098" data-name="Ellipse 1098" cx="19.949" cy="19.949" rx="19.949" ry="19.949" transform="translate(0 0)" fill="#2699fb"/>
  <g id="Group_1145" data-name="Group 1145" transform="translate(8.926 12.101)">
    <path id="Path_398" data-name="Path 398" d="M48.345,36.264a9.514,9.514,0,0,1-2.739.75,4.781,4.781,0,0,0,2.1-2.638,9.546,9.546,0,0,1-3.028,1.157,4.772,4.772,0,0,0-8.126,4.35A13.536,13.536,0,0,1,26.721,34.9,4.774,4.774,0,0,0,28.2,41.267a4.735,4.735,0,0,1-2.16-.6c0,.02,0,.041,0,.06a4.771,4.771,0,0,0,3.825,4.675,4.787,4.787,0,0,1-2.153.083A4.773,4.773,0,0,0,32.163,48.8a9.626,9.626,0,0,1-7.06,1.974A13.56,13.56,0,0,0,45.979,39.349c0-.207,0-.413-.014-.617a9.669,9.669,0,0,0,2.38-2.468Z" transform="translate(-25.103 -34.028)" fill="#fff"/>
  </g>
</svg>
