<svg xmlns="http://www.w3.org/2000/svg" width="55.519" height="38.959" viewBox="0 0 55.519 38.959">
  <path id="Path_210" data-name="Path 210" d="M46.775,46.785a22.483,22.483,0,0,0,2.48-.1c3.232-.461,5.262-1.819,7.2-5.377a13.356,13.356,0,0,0,.937-5.112l.029-5.524a30.311,30.311,0,0,0-.405-4.407,8.545,8.545,0,0,0-2.283-4.16,6.132,6.132,0,0,0-1.872-1.36,10.313,10.313,0,0,0-2.788-.881,53.659,53.659,0,0,0-6.055-.217L32.59,19.572l-7.971.156a30.377,30.377,0,0,0-3.185.144,4.072,4.072,0,0,0-2.415.981A3.82,3.82,0,0,0,17.6,22.789a18.206,18.206,0,0,0-.25,3.723s.129,4.457.15,5.1c0,.4.162.526.27.561s2.774.341,2.779.353V32.47a2.738,2.738,0,0,1,2.371-1.642c1.789-.106,21.507-.405,23.12-.441a3.484,3.484,0,0,1,1.554.232,1.175,1.175,0,0,1,.529.588,7.638,7.638,0,0,1,.241,1.686s-.026,1.763-.026,2.265a2.523,2.523,0,0,1-2.7,2.612c-1.228.041-23.9-.2-23.9-.2a6.443,6.443,0,0,1-2.7-.555c-2.259-1.193-2.982-2.918-3.023-6.625,0-2.556.018-8.579.018-8.579a6.5,6.5,0,0,1,1.8-4.58c1.469-1.4,4.6-1.334,5.036-1.316h.112c.764,0,8.426,0,11.165-.076,2.876-.073,17.449.347,18.181.382a5.068,5.068,0,0,1,2.186.552,7.713,7.713,0,0,1,1.992,1.554A9.513,9.513,0,0,1,58.548,22.6c.259,1.692.588,7.757.588,7.757s.153,6.32-.435,8.617a10.889,10.889,0,0,1-2.938,5.794c-.373.382-.74.764-.74.764v.021h0c-.026.062-.088.112,0,.32a2.242,2.242,0,0,0,1.072.881c.353.167,1.011-.115,1.663-.529A10.427,10.427,0,0,0,61.965,41.6,19.678,19.678,0,0,0,63.4,34.3c0-.517-.053-9.7-.053-9.7a38.341,38.341,0,0,0-.294-6.1,15.59,15.59,0,0,0-2.459-5.92A8.283,8.283,0,0,0,57.332,9.8a11.873,11.873,0,0,0-1.719-.708c-2.644-.881-5.859-.881-8.52-.964S33.1,7.967,33.1,7.967s-8.033.05-11.353.217c-5.253.259-6.575.358-8.955,1.366A8.454,8.454,0,0,0,8.26,14.906a21.455,21.455,0,0,0-.353,5.224l.109,13.786A31.523,31.523,0,0,0,8.2,38.288c.376,2.873.881,4.152,1.381,4.918a7.163,7.163,0,0,0,2.891,2.615h0l.073.035a22.089,22.089,0,0,0,6.373.964c2.856.115,10.709.1,12.769.106Z" transform="translate(-7.88 -7.967)" fill="#141414"/>
</svg>
